<svg width="195" height="195" viewBox="0 0 195 195" fill="none" xmlns="http://www.w3.org/2000/svg">
<path fill-rule="evenodd" clip-rule="evenodd" d="M50.9659 53.1818C25.2658 53.1818 4.43181 74.0158 4.43181 99.7159C4.43181 125.416 25.2659 146.25 50.9659 146.25H144.034C169.734 146.25 190.568 125.416 190.568 99.7159C190.568 74.0158 169.734 53.1818 144.034 53.1818H50.9659ZM144.034 144.338C168.678 144.338 188.656 124.36 188.656 99.7159C188.656 75.072 168.678 55.0942 144.034 55.0942C119.39 55.0942 99.4124 75.072 99.4124 99.7159C99.4124 124.36 119.39 144.338 144.034 144.338Z" fill="black"/>
<rect x="142.122" y="82.2005" width="3.18727" height="35.0599" fill="black"/>
<rect x="126.185" y="101.324" width="3.18727" height="35.0599" transform="rotate(-90 126.185 101.324)" fill="black"/>
<rect x="130.193" y="88.4618" width="3.18727" height="35.0599" transform="rotate(-45 130.193 88.4618)" fill="black"/>
<rect x="154.984" y="86.2081" width="3.18727" height="35.0599" transform="rotate(45 154.984 86.2081)" fill="black"/>
</svg>
